<svg height="512" viewBox="0 0 48 60" width="512" xmlns="http://www.w3.org/2000/svg"><g id="009---Equality-Book"><path id="Shape" d="m5 60h38c1.6568542 0 3-1.3431458 3-3v-5c1.1045695 0 2-.8954305 2-2v-48c0-1.1045695-.8954305-2-2-2h-41c-2.76005315.00330612-4.99669388 2.23994685-5 5v50c0 2.7614237 2.23857625 5 5 5zm38-2h-38c-1.65685425-.0635127-2.94851275-1.4581458-2.885-3.115s1.45814575-2.9485127 3.115-2.885h38.77v2h-37c-.55228475 0-1 .4477153-1 1s.44771525 1 1 1h37v1c0 .2652165-.1053568.5195704-.2928932.7071068s-.4418903.2928932-.7071068.2928932zm-38-56v5c0 .55228475.44771525 1 1 1s1-.44771525 1-1v-5h39v48h-39v-37c0-.5522847-.44771525-1-1-1s-1 .4477153-1 1v37.023c-1.09086041.0518656-2.13887986.4403315-3 1.112v-46.135c0-.79564947.31607052-1.55871121.87867966-2.12132034.56260913-.56260914 1.32567087-.87867966 2.12132034-.87867966z"/><path id="Shape" d="m12 12c.5522847 0 1-.4477153 1-1v-1.586l3.685 3.686c-1.7681239 2.2769313-2.1725941 5.3297731-1.0584052 7.9885813 1.114189 2.6588083 3.5742478 4.5112526 6.4374052 4.8474187.3367691 2.8628116 2.1892622 5.3223676 4.8478185 6.436451 2.6585564 1.1140834 5.7110739.7100005 7.9881815-1.057451l2.686 2.685-1.293 1.293c-.2859079.2859943-.3714219.7160366-.216678 1.0896546.1547439.3736179.5192821.6172591.923678.6173454.55 0 .686-.272 2-1.586l1.293 1.293c.2510745.2599566.6228779.3642126.9725073.2726972.3496295-.0915155.6226744-.3645604.7141899-.7141899.0915154-.3496294-.0127406-.7214328-.2726972-.9725073l-1.293-1.293 1.293-1.293c.3789722-.3923789.3735524-1.0160848-.0121814-1.4018186s-1.0094397-.3911536-1.4018186-.0121814l-1.293 1.293-2.685-2.686c1.7681239-2.2769313 2.1725941-5.3297731 1.0584052-7.9885813-1.114189-2.6588083-3.5742478-4.5112526-6.4374052-4.8474187-.3367691-2.8628116-2.1892622-5.3223676-4.8478185-6.436451-2.6585564-1.11408339-5.7110739-.71000048-7.9881815 1.057451l-3.686-3.685h1.586c.5522847 0 1-.44771525 1-1s-.4477153-1-1-1h-4c-.5522847 0-1 .44771525-1 1v4c0 .5522847.4477153 1 1 1zm22.243 17.243c-1.5964317 1.5961043-3.9548302 2.1587278-6.0998672 1.4551945-2.1450371-.7035333-3.7121044-2.5536384-4.0531328-4.7851945 3.5544917-.4722922 6.3511869-3.2685775 6.824-6.823 2.2309406.3420218 4.0801403 1.9092198 4.7833401 4.0538841.7031998 2.1446644.140964 4.5025321-1.4543401 6.0991159zm-10.134-5.353c.450022-2.4302279 2.351678-4.3314862 4.782-4.781-.4487006 2.4309229-2.3509833 4.3328078-4.782 4.781zm4.8-6.8c-3.5542677.4716217-6.3508573 3.2678015-6.823 6.822-3.0373473-.4642562-5.2301636-3.1524325-5.0747328-6.2211218s2.6086428-5.5215418 5.6773549-5.6765228c3.068712-.154981 5.7565669 2.0382292 6.2203779 5.0756446z"/><path id="Shape" d="m15 40h-2c-.5522847 0-1 .4477153-1 1s.4477153 1 1 1h2c.5522847 0 1-.4477153 1-1s-.4477153-1-1-1z"/><path id="Shape" d="m41 40h-22c-.5522847 0-1 .4477153-1 1s.4477153 1 1 1h22c.5522847 0 1-.4477153 1-1s-.4477153-1-1-1z"/><path id="Shape" d="m32 44h-12c-.5522847 0-1 .4477153-1 1s.4477153 1 1 1h12c.5522847 0 1-.4477153 1-1s-.4477153-1-1-1z"/></g></svg>