<svg height="512" viewBox="0 0 58 58" width="512" xmlns="http://www.w3.org/2000/svg"><g id="016---Female-Politician" fill="none"><path id="Shape" d="m11 38h36v18c0 1.1045695-.8954305 2-2 2h-32c-1.1045695 0-2-.8954305-2-2z" fill="#35495e"/><path id="Shape" d="m8 8c-.55228475 0-1 .44771525-1 1v24c0 .5522847.44771525 1 1 1s1-.4477153 1-1v-24c0-.55228475-.44771525-1-1-1z" fill="#547580"/><rect id="Rectangle-path" fill="#e64c3c" height="7" rx="1" width="9" y="12"/><path id="Shape" d="m50 8c-.5522847 0-1 .44771525-1 1v24c0 .5522847.4477153 1 1 1s1-.4477153 1-1v-24c0-.55228475-.4477153-1-1-1z" fill="#547580"/><rect id="Rectangle-path" fill="#e64c3c" height="7" rx="1" width="9" x="49" y="12"/><path id="Shape" d="m21 10v-2.32c-.066278-4.17142162 3.258669-7.60824437 7.43-7.68h1.14c4.1708562.07284917 7.4951694 3.50901676 7.43 7.68v2.32z" fill="#a56a43"/><path id="Shape" d="m18.2 24.85c-1.1558263-1.1382567-1.5097303-2.8618792-.8959354-4.3634845.6137949-1.5016054 2.0737285-2.4838053 3.6959354-2.4865155v-4.13h16v4.13c1.6222069.0027102 3.0821405.9849101 3.6959354 2.4865155.6137949 1.5016053.2598909 3.2252278-.8959354 4.3634845z" fill="#a56a43"/><path id="Shape" d="m21 24c-2.7614237 0-5 2.2385763-5 5v4h26v-4c0-2.7614237-2.2385763-5-5-5z" fill="#ff5364"/><path id="Shape" d="m25 24-3.37 4.23c-.258706.3174389-.3780855.7259864-.3310031 1.1327781.0470823.4067917.2566268.7772694.5810031 1.0272219l3.86 2.61h6.81l3.86-2.61c.3243763-.2499525.5339208-.6204302.5810031-1.0272219.0470824-.4067917-.0722971-.8153392-.3310031-1.1327781l-3.37-4.23z" fill="#fb7b76"/><path id="Shape" d="m33 17.97v6.03l-4 9-4-9v-6.03z" fill="#f9c795"/><path id="Shape" d="m37.283 12.994c.0027532.4791052-.2215808.9312015-.6047767 1.2187955-.3831958.287594-.8799632.3766947-1.3392233.2402045-.364755-.0974291-.7432272.1013776-.87.457-3.021 7.861-7.71 8.4-10.938 0-.1267728-.3556224-.505245-.5544291-.87-.457-.45929.1369453-.9563088.0480284-1.3396314-.2396608-.3833226-.2876891-.6075504-.7400781-.6043686-1.2193392 0-1.143-.937-1.956-.668-2.863.1781641-.58883131.6342654-1.05254102 1.2200688-1.24042141.5858035-.18788039 1.2265265-.07594697 1.7139312.29942141.000724-.20188282.0885745-.393623.241-.526.61-.473 3.75-2.234 5.407-3.538.2169133-.16917831.5210867-.16917831.738 0 1.657 1.3 4.8 3.065 5.407 3.538.1524255.132377.240276.32411718.241.526.4874047-.37536838 1.1281277-.4873018 1.7139312-.29942141.5858034.18788039 1.0419047.6515901 1.2200688 1.24042141.269.907-.668 1.72-.668 2.863z" fill="#fdd7ad"/><rect id="Rectangle-path" fill="#2c3e50" height="7" rx="1" width="50" x="4" y="33"/><path id="Shape" d="m29.413 44.269c1.287 2.737 1.214 2.731 1.535 2.783l2.657.4c.1767715.0340533.3204382.162662.3737768.3346003.0533385.1719383.0076849.3592778-.1187768.4873997-2.073 2.116-2.11 2.052-2.055 2.388l.454 2.769c.0368958.1755888-.0305214.3567389-.1732355.4654836-.1427141.1087448-.3352593.1256798-.4947645.0435164-2.59-1.425-2.52-1.465-2.8-1.308l-2.377 1.308c-.1595052.0821634-.3520504.0652284-.4947645-.0435164-.1427141-.1087447-.2101313-.2898948-.1732355-.4654836.489-2.984.554-2.958.321-3.2l-1.927-1.953c-.1264617-.1281219-.1721153-.3154614-.1187768-.4873997.0533386-.1719383.1970053-.300547.3737768-.3346003 2.888-.439 2.86-.363 3-.668l1.188-2.519c.0708005-.1664081.2341565-.2744327.415-.2744327s.3441995.1080246.415.2744327z" fill="#f0c419"/></g></svg>