<?xml version="1.0"?>
<svg xmlns="http://www.w3.org/2000/svg" id="Layer_1" data-name="Layer 1" viewBox="0 0 512 512" width="512" height="512"><title>Enterprise</title><path d="M331,281.74a24.37,24.37,0,0,1-13.09,21.61,24.4,24.4,0,0,1-6.38,2.27,24.052,24.052,0,0,1-4.91.5,24.477,24.477,0,0,1-5.31-.58A24.393,24.393,0,0,1,288.42,324a24.143,24.143,0,0,1-3.08,1.35,24.14,24.14,0,0,1-8.2,1.41,24.3,24.3,0,0,1-3.74-.28v-16.3l-.06-.17a52.24,52.24,0,0,0,34.88-47.56h.9a13.263,13.263,0,0,0,7.9-2.6C324.32,264.38,331,273.03,331,281.74Z" style="fill:#af593c"/><path d="M313.69,345.07a27.857,27.857,0,0,1,13.06,17.28,127.21,127.21,0,0,1-26.87,13.66v-9.13A27.907,27.907,0,0,1,313.69,345.07Z" style="fill:#e48e66"/><path d="M317.02,259.85a13.263,13.263,0,0,1-7.9,2.6h-.9a52.244,52.244,0,0,1-104.43,0h-.94a13.312,13.312,0,0,1-12.91-16.47,10.1,10.1,0,0,1,11.88-7.4h.42a25.392,25.392,0,0,1,22.98-14.69,44.855,44.855,0,0,0,35.16-16.99l14.03-17.09s-10.64,45.94,35.37,48.7h.38a10.15,10.15,0,0,1,11.88,7.47,13.755,13.755,0,0,1,.38,3.17,13.272,13.272,0,0,1-3.9,9.41A13.1,13.1,0,0,1,317.02,259.85Z" style="fill:#f8ec7d"/><path d="M255.99,353.84l17.41-23.46h.3l38.5,13.89c.51.25,1,.52,1.49.8a27.907,27.907,0,0,0-13.81,21.81v9.13a128.113,128.113,0,0,1-87.49.1v-9.23a27.921,27.921,0,0,0-13.8-21.81c.48-.28.98-.55,1.48-.8l38.5-13.89Z" style="fill:#e48e66"/><path d="M311.27,214.92c0,1.28-.04,2.57-.13,3.87l-1.36,19.72c-46.01-2.76-35.37-48.7-35.37-48.7L260.38,206.9a44.855,44.855,0,0,1-35.16,16.99,25.392,25.392,0,0,0-22.98,14.69l-1.37-19.79a55.266,55.266,0,1,1,110.4-3.87Z" style="fill:#e48e66"/><path d="M273.4,326.48v3.9l-17.41,23.46-17.42-23.46v-20.2l.06-.18a52.441,52.441,0,0,0,34.71.01l.06.17Z" style="fill:#e8da77"/><path d="M238.63,310l-.06.18v16.35a24.406,24.406,0,0,1-3.65.27,24.15,24.15,0,0,1-4.92-.5,24.4,24.4,0,0,1-6.38-2.27,24.422,24.422,0,0,1-12.9-18.48,24.5,24.5,0,0,1-5.32.58,24.777,24.777,0,0,1-4.91-.49,24.389,24.389,0,0,1-3.3-.92,25.642,25.642,0,0,1-3.08-1.35,24.414,24.414,0,0,1,.7-43.63,13.223,13.223,0,0,0,8.04,2.71h.94A52.317,52.317,0,0,0,238.63,310Z" style="fill:#af593c"/><path d="M212.39,366.88v9.23a127.225,127.225,0,0,1-26.9-13.6,27.847,27.847,0,0,1,13.1-17.44A27.921,27.921,0,0,1,212.39,366.88Z" style="fill:#e48e66"/><path d="M255,134.22a6,6,0,0,1-6-6v-57a6,6,0,0,1,12,0v57A6,6,0,0,1,255,134.22Z" style="fill:#2561a1"/><path d="M256,447.22a6,6,0,0,1-6-6v-57a6,6,0,0,1,12,0v57A6,6,0,0,1,256,447.22Z" style="fill:#2561a1"/><path d="M441,262.22H384a6,6,0,1,1,0-12h57a6,6,0,0,1,0,12Z" style="fill:#2561a1"/><path d="M128,263.22H71a6,6,0,1,1,0-12h57a6,6,0,0,1,0,12Z" style="fill:#2561a1"/><path d="M346,171.29a6,6,0,0,1-4.242-10.243l40.309-40.3a6,6,0,1,1,8.485,8.486l-40.31,40.3A5.983,5.983,0,0,1,346,171.29Z" style="fill:#2561a1"/><path d="M125.38,393.32a6,6,0,0,1-4.258-10.227l.14-.141,40.186-40.176a6,6,0,0,1,8.485,8.487l-40.295,40.285A5.984,5.984,0,0,1,125.38,393.32Z" style="fill:#2561a1"/><path d="M387.01,392.62a5.979,5.979,0,0,1-4.243-1.758l-40.3-40.31a6,6,0,1,1,8.486-8.485l40.3,40.311a6,6,0,0,1-4.243,10.242Z" style="fill:#2561a1"/><path d="M164.98,172a5.981,5.981,0,0,1-4.243-1.758l-40.3-40.309a6,6,0,1,1,8.486-8.485l40.3,40.31A6,6,0,0,1,164.98,172Z" style="fill:#2561a1"/><path d="M256,389.76c-73.634,0-133.54-59.906-133.54-133.54S182.366,122.68,256,122.68s133.54,59.906,133.54,133.54S329.634,389.76,256,389.76Zm0-255.08A121.54,121.54,0,1,0,377.54,256.22,121.677,121.677,0,0,0,256,134.68Z" style="fill:#6fe3ff"/><path d="M467.11,229.89A26.11,26.11,0,1,1,441.01,256,26.11,26.11,0,0,1,467.11,229.89Z" style="fill:#6fe3ff"/><path d="M423.74,88.26a26.106,26.106,0,1,1-36.92,0A26.116,26.116,0,0,1,423.74,88.26Z" style="fill:#6fe3ff"/><path d="M423.74,386.82a26.106,26.106,0,1,1-36.92,0A26.116,26.116,0,0,1,423.74,386.82Z" style="fill:#6fe3ff"/><path d="M256,18.78a26.105,26.105,0,1,1-26.11,26.11A26.11,26.11,0,0,1,256,18.78Z" style="fill:#6fe3ff"/><path d="M256,441.01a26.105,26.105,0,1,1-26.11,26.1A26.108,26.108,0,0,1,256,441.01Z" style="fill:#6fe3ff"/><path d="M125.18,88.26a26.106,26.106,0,1,1-36.92,0A26.1,26.1,0,0,1,125.18,88.26Z" style="fill:#6fe3ff"/><path d="M125.52,387.18a25.627,25.627,0,1,1-.34-.36C125.3,386.94,125.42,387.06,125.52,387.18Z" style="fill:#6fe3ff"/><path d="M44.89,229.89A26.11,26.11,0,1,1,18.78,256,26.108,26.108,0,0,1,44.89,229.89Z" style="fill:#6fe3ff"/></svg>
