<svg height="512pt" viewBox="0 -56 512 512" width="512pt" xmlns="http://www.w3.org/2000/svg"><path d="m216.421875 112.71875h16.03125v15.03125h-16.03125zm0 0"/><path d="m248.484375 112.71875h16.03125v15.03125h-16.03125zm0 0"/><path d="m280.546875 112.71875h16.03125v15.03125h-16.03125zm0 0"/><path d="m137.886719 158.414062c-1.40625-7.414062-2.121094-15.035156-2.121094-22.648437 0-66.574219 54.160156-120.734375 120.734375-120.734375 21.140625 0 41.609375 5.441406 59.753906 15.804688-2.410156.792968-4.980468 1.226562-7.652344 1.226562v15.03125c13.539063 0 24.550782 11.007812 24.550782 24.546875h15.027344c0-13.539063 11.011718-24.546875 24.546874-24.546875v-15.03125c-13.535156 0-24.546874-11.011719-24.546874-24.546875h-15.027344c0 4.988281-1.5 9.628906-4.066406 13.507813-21.703126-13.761719-46.699219-21.023438-72.585938-21.023438-74.859375 0-135.765625 60.902344-135.765625 135.765625 0 8.550781.804687 17.117187 2.382813 25.449219zm202.777343-127.738281c2.476563 3.417969 5.484376 6.425781 8.902344 8.902344-3.417968 2.476563-6.425781 5.480469-8.902344 8.902344-2.472656-3.421875-5.480468-6.425781-8.898437-8.902344 3.417969-2.476563 6.425781-5.484375 8.898437-8.902344zm0 0"/><path d="m256.25 271.53125c74.863281 0 135.890625-60.90625 135.890625-135.765625 0-23.023437-5.808594-45.769531-16.910156-65.78125l-13.109375 7.292969c9.867187 17.785156 14.847656 38.011718 14.847656 58.488281 0 55.65625-37.304688 102.628906-89.40625 116.542969v-76.464844h17.03125c.277344 0 0-.277344 0 0v16.03125h15.03125v-16.03125c0-8.5625-6.464844-15.03125-15.03125-15.03125h-96.1875c-8.5625 0-16.03125 6.46875-16.03125 15.03125v16.03125h15.03125v-16.03125c0-.277344.722656 0 1 0h16.03125v76.488281c-18.035156-4.882812-34.066406-13.960937-49.09375-26.726562v-48.761719h-47.09375v17.378906l-49.144531 14.683594h-79.105469v79.15625h16.03125v48.09375h60.253906l-13.160156-25.820312v-22.273438h15.980469l49.144531 13.683594v18.378906h47.09375v-75.136719c24.046875 17.210938 51.589844 26.542969 80.90625 26.542969zm-16.78125-95.6875h33.0625v79.519531c-5.007812.742188-10.921875 1.136719-16.53125 1.136719-5.570312 0-10.519531-.382812-16.53125-1.128906zm-224.4375 48.09375h57.109375v49.097656h-57.109375zm36.933594 97.191406h-20.902344v-33.066406h17.03125v25.820312zm35.207031-46.75v-52.789062l41.078125-11.738282v76.261719zm73.140625 30.71875h-17.03125v-113.222656h17.03125zm0 0"/><path d="m192.375 336.15625h16.03125v32.0625h16.03125v8.015625c0 12.984375 11.066406 24.046875 24.046875 24.046875h16.03125c12.984375 0 23.046875-11.0625 23.046875-24.046875v-8.015625h16.03125v-32.0625h16.03125v-47.089844h-127.25zm80.15625 40.078125c0 4.695313-3.320312 9.019531-8.015625 9.019531h-16.03125c-4.695313 0-9.015625-4.324218-9.015625-9.019531v-8.015625h33.0625zm16.03125-23.042969h-65.125v-17.035156h65.125zm-81.15625-49.097656h97.1875v17.035156h-97.1875zm0 0"/><path d="m464.90625 232.953125v15.03125h21.9375l-29.953125 29.703125-32.0625-32.1875-48.09375 48.03125-26.746094-26.78125-10.628906 10.609375 37.375 37.371094 48.09375-48.101563 31.8125 32.0625 40.328125-40.582031v21.9375h15.03125v-47.09375zm0 0"/></svg>