<svg id="Icons" height="512" viewBox="0 0 60 60" width="512" xmlns="http://www.w3.org/2000/svg"><path d="m45.93 36.17a19.568 19.568 0 0 0 -7.55 2.64c-2.03-9.64-8.38-13.81-8.38-13.81s-6.35 4.17-8.38 13.81a19.624 19.624 0 0 0 -7.55-2.64l8.93-17.17v-13h14v13z" fill="#02a9f4"/><path d="m37 19v-13h-3v13l8.93 17.17a19.683 19.683 0 0 0 -4.878 1.3c.115.436.231.874.328 1.336a19.568 19.568 0 0 1 7.55-2.64z" fill="#0377bc"/><path d="m40 3.5a2.492 2.492 0 0 1 -2.5 2.5h-15a2.5 2.5 0 1 1 0-5h15a2.5 2.5 0 0 1 2.5 2.5z" fill="#0377bc"/><path d="m38.38 38.81a24.311 24.311 0 0 0 -8.29 8.55v.01l-.09.15a24.42 24.42 0 0 0 -8.38-8.71c2.03-9.64 8.38-13.81 8.38-13.81s6.35 4.17 8.38 13.81z" fill="#008a00"/><path d="m30 25a13.049 13.049 0 0 0 -1.5 1.23 23.738 23.738 0 0 1 6.88 12.58 23.052 23.052 0 0 0 -6.88 6.455c.511.7 1.016 1.444 1.5 2.255l.09-.15v-.01a24.311 24.311 0 0 1 8.29-8.55c-2.03-9.64-8.38-13.81-8.38-13.81z" fill="#007900"/><path d="m46.9 54.83c-5.96 5.96-15.09 5.89-16.9-1.77v-5.54l.09-.15v-.01a24.311 24.311 0 0 1 8.29-8.55 19.568 19.568 0 0 1 7.55-2.64 18.059 18.059 0 0 1 6.63.27 19.755 19.755 0 0 1 -5.66 18.39z" fill="#60a917"/><path d="m52.56 36.44a17.539 17.539 0 0 0 -5.5-.384 14.371 14.371 0 0 1 2.5.384 19.755 19.755 0 0 1 -5.66 18.39 14.219 14.219 0 0 1 -7.785 4.114c3.418.551 7.562-.891 10.785-4.114a19.755 19.755 0 0 0 5.66-18.39z" fill="#549414"/><path d="m30 47.52v5.54c-1.82 7.66-10.95 7.72-16.9 1.77a19.755 19.755 0 0 1 -5.66-18.39 18.059 18.059 0 0 1 6.63-.27 19.624 19.624 0 0 1 7.55 2.64 24.42 24.42 0 0 1 8.38 8.71z" fill="#60a917"/><path d="m21.62 38.81a19.624 19.624 0 0 0 -7.55-2.64 19.854 19.854 0 0 0 -4.131-.114c.366.027.741.062 1.131.114a19.624 19.624 0 0 1 7.55 2.64 23.007 23.007 0 0 1 6.78 6.29 8.246 8.246 0 0 1 1.6 4.888v1.64a7.6 7.6 0 0 1 -1.071 4.053 7.114 7.114 0 0 1 -5.047 3.259c4.172.625 8.007-1.2 9.118-5.88v-5.54a24.42 24.42 0 0 0 -8.38-8.71z" fill="#549414"/><path d="m22.452 60.067a9.211 9.211 0 0 0 3.977-.854 1 1 0 0 0 -.858-1.806c-3.384 1.609-8.221.259-11.764-3.284a18.757 18.757 0 0 1 -5.535-16.842 18.843 18.843 0 0 1 12.841 2.391 20.2 20.2 0 0 1 4.01 3.135c.039.039.078.076.11.114a1 1 0 1 0 1.534-1.283c-.068-.081-.148-.163-.23-.245a22.429 22.429 0 0 0 -3.779-3.044 22.4 22.4 0 0 1 7.242-12.098 22.266 22.266 0 0 1 7.24 12.1 22.378 22.378 0 0 0 -3.779 3.044c-.082.082-.162.164-.23.245a1 1 0 1 0 1.534 1.283c.032-.038.071-.075.11-.114a20.251 20.251 0 0 1 4.017-3.14 18.828 18.828 0 0 1 12.83-2.389 18.979 18.979 0 0 1 -5.529 16.843c-3.543 3.542-8.379 4.894-11.764 3.284a1 1 0 0 0 -.858 1.806 9.211 9.211 0 0 0 3.977.854 14.688 14.688 0 0 0 10.059-4.53 20.59 20.59 0 0 0 5.915-19.369 1 1 0 0 0 -.691-.69 18.662 18.662 0 0 0 -6.331-.378l-8.5-16.345v-11.806a3.492 3.492 0 0 0 -.5-6.949h-15a3.492 3.492 0 0 0 -.5 6.949v11.806l-8.5 16.345a18.682 18.682 0 0 0 -6.331.379 1 1 0 0 0 -.691.69 20.59 20.59 0 0 0 5.915 19.369 14.688 14.688 0 0 0 10.059 4.529zm1.155-40.067h3.393a1 1 0 0 0 0-2h-3v-2h3a1 1 0 0 0 0-2h-3v-2h3a1 1 0 0 0 0-2h-3v-3h1a1 1 0 0 0 0-2h-2.5a1.5 1.5 0 0 1 0-3h15a1.5 1.5 0 0 1 0 3h-7.5a1 1 0 0 0 0 2h6v12a1 1 0 0 0 .113.461l8.3 15.949a20.558 20.558 0 0 0 -5.368 1.9c-2.351-9-8.23-12.97-8.491-13.142a1 1 0 0 0 -1.1 0c-.261.172-6.14 4.141-8.491 13.143a20.583 20.583 0 0 0 -5.368-1.9z"/><path d="m30 60a1 1 0 0 0 1-1v-6.024c12.733-.5 16.887-10.5 16.929-10.6a1 1 0 0 0 -1.858-.744c-.036.091-3.7 8.824-15.071 9.324v-11.956a1 1 0 0 0 -2 0v11.954c-11.306-.487-14.913-8.936-15.072-9.326a1 1 0 1 0 -1.857.744c.042.1 4.2 10.1 16.929 10.6v6.028a1 1 0 0 0 1 1z"/></svg>